/* XPM */
static char *zm_zettel[]={
"48 48 565 2",
"Qt c None",
"e3 c #b8b3b6",
"e2 c #aea9ac",
"eJ c #b0a9b0",
"ep c #afa8af",
"fI c #737175",
"bU c #d3ccce",
"eI c #ada6ad",
"gY c #82887f",
"eo c #ada6ad",
"bs c #d1cacc",
"fn c #6e6b70",
"f2 c #726f71",
"fH c #706a6f",
"gD c #7a7c7e",
"d8 c #9a96a0",
"fm c #6e656c",
"dO c #aba9b0",
".b c #010101",
".f c #808080",
"dv c #b9b8bd",
"a2 c #6f6268",
"f1 c #716e70",
"gj c #76777d",
"fl c #6d636a",
"fG c #6f696d",
"cb c #796a74",
"d7 c #9a96a0",
"bT c #7f717c",
"gE c #aeb7bf",
"aC c #897980",
"dN c #aba9b0",
".a c #000000",
".e c #808080",
"cS c #837e83",
"db c #838082",
"cv c #847c85",
"f0 c #757677",
"du c #b9b8bd",
"br c #827581",
"gX c #8a8a8d",
"gC c #88878b",
"ca c #796a74",
"ac c #95848c",
"fF c #7f7e83",
"a1 c #847986",
"gi c #868589",
"gF c #bcc5ce",
"aB c #8e838f",
"bt c #2f553b",
".d c #404040",
"fk c #86848c",
"fZ c #808084",
"bS c #796b77",
"fE c #868489",
"ab c #958c95",
"gk c #abb3bc",
"fj c #8b888f",
"bq c #7a6c79",
"e1 c #807f86",
"eH c #86848b",
"gW c #8b8a8f",
"en c #8c8a91",
"e0 c #89888e",
"gB c #8b8a8e",
"eG c #919097",
"em c #9999a0",
".# c #000000",
"#e c #000080",
".v c #003411",
".I c #003712",
"#H c #004014",
"#C c #004617",
"#x c #004918",
"#u c #004d19",
".5 c #00531b",
".R c #005a1d",
".M c #005d1e",
".F c #006020",
"#8 c #006521",
".B c #006722",
".w c #006922",
".y c #006a23",
".u c #006e24",
"#Y c #007f29",
"#G c #008029",
"#N c #00862b",
"#F c #008d2d",
"#B c #008d2e",
"#w c #009330",
"#t c #009a32",
"#A c #009c33",
"#v c #00a335",
".4 c #00a737",
"#s c #00aa37",
"#z c #00ab38",
"#r c #00b23a",
".Q c #00b43b",
".3 c #00b83d",
".L c #00ba3d",
".P c #00c13f",
".E c #00c140",
".K c #00c541",
".O c #00c741",
"#p c #00ca42",
".D c #00ca43",
"#q c #00cb43",
".A c #00ce44",
".J c #00d045",
".z c #00d245",
".C c #00d346",
".x c #00d546",
".1 c #00d747",
".2 c #00d948",
".t c #00dc49",
"au c #111011",
"bz c #167f38",
".s c #202020",
"#O c #20402a",
"aU c #222123",
".r c #282829",
"ad c #293f2f",
"cw c #297541",
"by c #297f45",
"av c #2b2a2b",
"dc c #2cff71",
"bx c #327f4b",
"bw c #3c7f51",
"bv c #3e7f52",
".n c #404040",
"bu c #417f54",
"aj c #427f55",
"cz c #42e075",
"aw c #464546",
"a3 c #467f58",
"ai c #4d7f5c",
".p c #505052",
"ae c #527f5f",
"cx c #52ea82",
"a9 c #52ff8a",
"af c #557f61",
"ag c #567f62",
"aV c #575658",
"ah c #587f63",
"cy c #58ed88",
"b3 c #595859",
".i c #5a5a5b",
"bh c #5a5a61",
"bI c #5b595e",
"dP c #5c597c",
"bi c #5c5e63",
"b6 c #5d5b62",
"bg c #5d5b63",
".o c #5d5d5d",
"bj c #5f6266",
".c c #606060",
"bL c #606067",
"bK c #616068",
"bM c #625f68",
"bJ c #626169",
"di c #645d55",
"b2 c #656466",
"a8 c #65ff96",
"b5 c #66646d",
"bH c #676469",
"bk c #67646e",
"bf c #68666b",
"dw c #6a677b",
"b4 c #6a6972",
"b7 c #6a6a6e",
".H c #6c6c6d",
"de c #6d6b70",
"ct c #6e6271",
"co c #6e6a72",
"bN c #6e6c72",
"ck c #6e6d71",
"bn c #726d78",
"bl c #726f76",
"b1 c #727074",
"bG c #737074",
"cj c #737075",
"#J c #7373b3",
"dq c #746861",
"b0 c #746c71",
"be c #747174",
"cp c #75727b",
"dx c #757481",
"#f c #7777b7",
"b8 c #77797a",
"d1 c #796b76",
"bF c #797278",
"ci c #79747a",
"dd c #79767b",
"dQ c #79788d",
"a7 c #79ffa3",
"ch c #7a7479",
"cg c #7a747b",
"bO c #7a797c",
"cf c #7b747d",
"cs c #7b7683",
"c# c #7c6c78",
"cQ c #7c7481",
"bo c #7c7483",
"dh c #7c777b",
"cq c #7c7b85",
".9 c #7c7cbc",
"aN c #7d6f75",
".8 c #7d7dbd",
"dB c #7e7878",
"cC c #7e787a",
"bm c #7e7a7f",
"cW c #7e7b7c",
".6 c #7e7ebe",
"a6 c #7effa6",
"ce c #7f7579",
"bd c #7f7880",
"dg c #7f7a80",
"cF c #7f7b7f",
"dS c #7f7c83",
".G c #7f7f7f",
".7 c #7f7fbf",
"cd c #80767c",
"cB c #807b7e",
"cG c #807e83",
"e. c #807e88",
".h c #808080",
"bR c #817483",
"dp c #817673",
"cc c #81787f",
"dJ c #81797d",
"bZ c #81797f",
"bQ c #817986",
"cD c #817c80",
"dy c #817c84",
"cE c #817d81",
"cV c #817f82",
"cH c #818187",
"dI c #82787d",
"bE c #827980",
"cA c #827e83",
"bP c #827f8a",
"aM c #837781",
"bc c #837982",
"df c #837d86",
"cR c #837e83",
"da c #838082",
"es c #83818a",
"a5 c #83ffa9",
"dH c #84777e",
"d2 c #847a87",
"cu c #847c85",
"dj c #847e7d",
"cU c #848488",
"cT c #84ffaa",
"c0 c #858284",
"#R c #858384",
"bp c #867c8e",
"dz c #86828a",
"cP c #86838f",
"eM c #86848c",
"c. c #877e8a",
"eL c #87858c",
"fY c #87868b",
"bb c #887b84",
"cX c #888483",
"cY c #888586",
"#Q c #888687",
"eK c #88878d",
"#9 c #888888",
"cn c #888a93",
"cZ c #898689",
"cr c #898b95",
"ba c #8a6a77",
"bC c #8a6e79",
"bX c #8a737c",
"aL c #8a7f8d",
"d# c #8a8691",
"#1 c #8a8789",
"ax c #8a878c",
"bD c #8b8089",
"a0 c #8b8090",
"#P c #8b898b",
"fD c #8b898e",
"gh c #8b8a8d",
"cL c #8b8b96",
"bW c #8c767f",
"an c #8c7f8c",
"fU c #8c8088",
"fV c #8c878c",
"dA c #8c8890",
"aW c #8c8b8d",
"fT c #8d7a84",
"aX c #8d8691",
"c1 c #8d8c90",
"a4 c #8dffb0",
"bB c #8e757f",
"bV c #8e7a82",
"fA c #8e8286",
"dT c #8e8b94",
"cM c #8e8f9b",
"fz c #8f7a82",
"#5 c #8f808b",
"do c #8f8486",
"bY c #8f868e",
"d3 c #8f8a99",
"fW c #8f8b92",
"fi c #8f8c92",
"aA c #908896",
"fX c #908b91",
"#0 c #908d8f",
"cO c #90929e",
"fy c #91737f",
"b# c #91747f",
"fe c #917d81",
"fB c #918c91",
"fC c #918c92",
"d. c #91909c",
"cm c #91949e",
"fg c #928c91",
"fh c #928c93",
"a. c #929094",
"b9 c #92919d",
"aR c #92949a",
"cN c #9294a0",
"fd c #93757d",
"bA c #937c85",
"ff c #938d90",
"eZ c #939296",
"ao c #948791",
"d6 c #949198",
"ay c #94919a",
"gg c #949494",
"gf c #949495",
"ge c #949496",
"dC c #959095",
"aa c #95919c",
"er c #95939a",
"c2 c #95969d",
"fc c #966d7a",
"#Z c #969396",
"gd c #969597",
"dR c #96979f",
"aY c #9793a0",
"gc c #979698",
"gA c #979899",
"aK c #98818f",
"gz c #98989a",
"c9 c #989aa8",
"fJ c #98a3ad",
"eV c #997c87",
"b. c #997e88",
"dV c #99949b",
"e7 c #999da6",
"gy c #9a999b",
"cl c #9a9eaa",
"aH c #9affb8",
"am c #9b8393",
"gV c #9b9c9f",
"aQ c #9b9ca4",
"aJ c #9c8290",
"ap c #9c9096",
"dr c #9c97a2",
"dM c #9c9da6",
"al c #9d8191",
"a# c #9d98a1",
"dU c #9d9aa5",
"gU c #9d9da0",
"eF c #9d9da3",
"aS c #9d9ea5",
"e6 c #9da2ac",
"fS c #9e96a0",
"gx c #9e9ea1",
"#2 c #9f7e8d",
"#3 c #9f8292",
"#4 c #9f8698",
"az c #9f9ca8",
"fR c #9f9ea8",
"ak c #a0808f",
"eY c #a09da2",
"gT c #a09fa1",
".q c #a0a0a4",
"ds c #a0a0ab",
"gw c #a0a1a5",
"f3 c #a0a5af",
"fr c #a0a7b1",
"aI c #a18392",
"dL c #a1a0ab",
"et c #a1a1a8",
"eN c #a1a1a9",
"aZ c #a1a1b0",
"e# c #a1a2a7",
"fQ c #a1a7b1",
"eB c #a2929d",
"d5 c #a2a0ab",
"e5 c #a2a7b3",
"eU c #a38390",
"#V c #a38e9f",
"eX c #a3a1a6",
"d9 c #a3a2a8",
"aP c #a3a2a9",
"gv c #a3a4a9",
"cK c #a3a5af",
"fP c #a3aab4",
"dk c #a4a0a5",
"gb c #a4a9b2",
"#W c #a5929e",
"#6 c #a599a1",
"dt c #a5a9b5",
"ga c #a5aab4",
"fq c #a5adb8",
"aD c #a5ffbf",
"fx c #a6a2ac",
"dK c #a6a3b0",
"gS c #a6a7ab",
"g# c #a6acb7",
"g. c #a6acb9",
"fO c #a6adb6",
"fu c #a6adb7",
"f9 c #a6adb8",
"f8 c #a6afb8",
"eW c #a7a5aa",
"eq c #a7a6aa",
"el c #a7a8b0",
"e8 c #a7abb3",
"ft c #a7adb6",
"#U c #a8919e",
"#M c #a897a7",
"dW c #a8a3ae",
"aT c #a8a8b0",
"fw c #a8a9b4",
"e9 c #a8adb6",
"c7 c #a8adbb",
"fs c #a8aeb6",
"c8 c #a8aebc",
"fM c #a8b1bc",
"cJ c #a9adb8",
"c6 c #a9adbb",
"fo c #a9afb5",
"f. c #a9b0ba",
"fN c #a9b1b9",
"gR c #aaadb3",
"aO c #aba9ae",
"eO c #abadb6",
"fv c #abb0bc",
"fp c #abb3c0",
"aE c #abffc3",
"eh c #aca9b4",
"eT c #ad8a9a",
"dD c #ada9b3",
"#T c #ae949e",
"eu c #aeb0b8",
"fL c #aeb8c4",
"aF c #aeffc5",
"eA c #af9eab",
"fb c #afafb9",
"gQ c #afb3bb",
"f7 c #afb9c4",
"#L c #b09eaa",
".m c #b0b0b2",
"cI c #b0b6c1",
"d0 c #b1acb9",
"d4 c #b1afbe",
".l c #b1b1b3",
"eE c #b1b3ba",
"ea c #b1b3bb",
"gp c #b1bac4",
"aG c #b1ffc7",
".k c #b2b2b4",
"fa c #b2b4c0",
"gu c #b2b8c2",
"eD c #b3b4bc",
"gq c #b3bbc6",
"dG c #b4b1ba",
".j c #b4b4b6",
"gt c #b4bbc6",
"eC c #b5b6bf",
"eP c #b5b9c4",
"gr c #b5bcc8",
"f6 c #b5bfcb",
"fK c #b5c0cd",
"f# c #b6b9c7",
"go c #b6bec9",
"f4 c #b6becd",
"dX c #b7b2c2",
"dn c #b7b6bc",
"#. c #b7b7d7",
"gs c #b7bfca",
"#K c #b9a5ae",
"#E c #b9acb6",
"e4 c #babbbd",
"#7 c #bbb2b7",
"ev c #bbbfc9",
"gn c #bbc4cf",
"f5 c #bbc6d3",
"ez c #bcabb9",
"eg c #bcbac6",
"gl c #bcc5d1",
"gJ c #bdc4ce",
"gK c #bdc6d1",
"c5 c #bec1cb",
".g c #c0c0c0",
"gP c #c0c8d3",
"gL c #c0c9d4",
"dZ c #c1c0ce",
"eb c #c1c5cf",
"gm c #c1cbd6",
"dF c #c2c2ce",
"c4 c #c2c7d1",
"ej c #c2c8d3",
"ek c #c2c9d2",
"gI c #c2cad4",
"eS c #c3c1cc",
"at c #c3c4c7",
"ei c #c3c7d4",
"gG c #c3ccd6",
"dm c #c4c5ce",
"gM c #c4ccd7",
"gO c #c4cdd8",
"#D c #c5b7be",
"eR c #c7c9d5",
"c3 c #c7ced8",
"gH c #c7d1da",
"as c #c8c9cd",
"gN c #c9d3dd",
"ey c #cbcdd9",
"eQ c #cbd2de",
"ar c #ccccd0",
"ef c #ccccd9",
"ex c #ccd0dc",
"ew c #cdd3df",
"ec c #cfd5e1",
"#X c #d0c7cd",
"aq c #d1d0d3",
"dl c #d1d4e1",
"dE c #d1d4e2",
"dY c #d1d4e3",
"ed c #d1d7e4",
"ee c #d4d9e7",
"#o c #dfdfdf",
"#n c #e1e1e1",
"#m c #e3e3e3",
"#S c #e7e7e7",
"#l c #e8e8e8",
"#i c #e9e9e9",
"#h c #eaeaea",
"#g c #ececec",
"#I c #ededed",
"#c c #eeeeee",
"#b c #efefef",
"#a c #f0f0f0",
"#k c #f1f1f1",
"#y c #f2f2f2",
"## c #f3f3f3",
".0 c #f4f4f4",
".Z c #f5f5f5",
"#j c #f6f6f6",
".Y c #f7f7f7",
".X c #f8f8f8",
"#d c #f9f9f9",
".W c #fafafa",
".V c #fbfbfb",
".S c #fcfcfc",
".T c #fdfdfd",
".U c #fefefe",
".N c #ffffff",
"QtQtQtQtQtQtQtQtQtQtQtQtQtQtQtQtQtQtQtQtQtQtQtQtQtQtQtQtQtQtQtQtQtQtQtQtQtQtQtQtQtQtQtQtQtQtQtQt",
"QtQtQtQtQtQtQtQtQtQtQtQtQtQtQtQtQtQtQtQtQtQtQtQtQtQtQtQtQtQtQtQtQtQtQtQtQtQtQtQtQtQtQtQtQtQtQtQt",
"QtQtQtQtQtQtQtQtQtQtQtQtQtQtQtQtQtQtQtQtQtQtQtQtQtQtQtQtQtQtQtQtQtQtQtQtQtQtQtQtQtQtQtQtQtQtQtQt",
"QtQtQtQtQtQtQtQtQtQtQtQtQtQtQtQtQtQt.#.#.#.#.#.#.#.#.#.#.#.#.#.#.#.#.#.#.#.#.#.#.aQtQtQtQtQtQtQt",
"QtQtQtQtQtQtQtQtQtQtQtQtQtQtQtQt.b.a.c.c.c.c.c.c.c.c.c.c.c.c.c.c.c.c.c.c.c.c.c.c.d.a.e.fQtQtQtQt",
"QtQtQtQtQtQtQtQtQtQtQtQtQtQtQtQt.a.#.g.g.g.g.g.g.g.g.g.g.g.g.g.g.g.g.g.g.g.g.g.g.c.#.h.eQtQtQtQt",
"QtQtQtQtQtQtQtQtQtQtQtQtQtQtQt.#.#.#.#.#.#.#.#.#.#.#.#.#.#.#.#.#.#.#.#.#.#.i.j.k.l.m.#.n.hQtQtQt",
"QtQtQtQtQtQtQtQtQtQtQtQtQt.b.a.c.c.c.c.c.c.c.c.c.c.c.c.c.c.c.c.c.c.c.c.c.c.o.i.k.l.m.#.n.hQtQtQt",
"QtQtQtQtQtQtQtQtQtQtQtQtQt.a.#.g.g.g.g.g.g.g.g.g.g.g.g.g.g.g.g.g.g.g.g.g.g.c.#.k.l.m.#.n.hQtQtQt",
"QtQtQtQtQtQtQtQtQtQtQtQt.#.#.#.#.#.#.#.#.#.#.#.#.#.#.#.#.#.#.#.#.#.#.i.j.k.l.m.#.p.q.#.n.h.h.eQt",
"QtQtQtQtQtQtQtQtQtQt.b.a.c.c.c.c.c.c.c.c.c.c.c.c.c.c.c.c.c.c.c.c.c.c.o.i.k.l.m.#.r.p.#.s.n.h.eQt",
"QtQtQtQtQtQtQtQtQtQt.a.#.g.g.g.g.g.g.g.g.g.g.g.g.g.g.g.g.g.g.g.g.g.g.c.#.k.l.m.#.#.#.#.#.#.h.eQt",
"QtQtQtQtQtQtQtQtQt.#.#.#.#.#.#.#.#.#.#.#.#.#.#.#.#.#.#.#.#.#.#.i.j.k.l.m.#.p.q.#.#.#.t.u.#.h.h.h",
"QtQtQtQtQtQtQt.b.a.c.c.c.c.c.c.c.c.c.c.c.c.c.c.c.c.c.c.c.c.c.c.o.i.k.l.m.#.r.p.#.v.w.x.y.#.h.h.h",
"QtQtQtQtQtQtQt.a.#.g.g.g.g.g.g.g.g.g.g.g.g.g.g.g.g.g.g.g.g.g.g.c.#.k.l.m.#.#.#.#.w.z.A.B.#.h.h.h",
"QtQtQtQtQtQt.#.#.#.#.#.#.#.#.#.#.#.#.#.#.#.#.#.#.#.#.#.#.i.j.k.l.m.#.p.q.#.#.#.C.A.D.E.F.#.h.h.h",
"QtQtQtQt.b.a.G.G.G.G.G.G.G.G.G.G.G.G.G.G.G.G.G.G.G.G.G.G.H.i.k.l.m.#.r.p.#.I.u.J.D.K.L.M.#.h.h.h",
"QtQtQtQt.a.#.N.N.N.N.N.N.N.N.N.N.N.N.N.N.N.N.N.N.N.N.N.N.G.#.k.l.m.#.#.#.#.u.t.A.O.P.Q.R.#.h.h.h",
"QtQtQtQt.a.#.S.S.S.S.S.T.T.T.U.U.U.N.N.U.T.V.W.W.X.Y.Y.Z.0.0.#.p.q.#.#.#.1.2.t.D.E.3.4.5.#.h.h.h",
"QtQtQtQt.a.#.W.W.W.6.6.6.6.6.7.7.7.7.7.6.6.8.8.8.9#.###a#b#c.#.r.p.#.v.w.1.2.t.D.E.3.4.5.#.h.h.h",
"QtQtQtQt.a.##d#d#d#e#e#e#e#e#e#e#e#e#e#e#e#e#e#e#e#f#b#g#h#i.#.#.#.#.w.z.1.2.t.D.E.3.4.5.#.h.h.h",
"QtQtQtQt.a.##j#j.Y.X.X#d.V.V.S.T.U.N.N.S.W.Z###k.0.0#l#m#n#o.#.#.##p#p#p.D.D#q.L#r#s#t#u.#.h.h.h",
"QtQtQtQt.a.#.0.0.0.Z.Z.Z.0.0.0.0.0.0.0.0.0.0.0.0.0.0########.#.#.#.D.D.D.D.D.D#r#s#v#w#x.#.h.h.h",
"QtQtQtQt.a.####y#y#y#y#y.0.0.0.0.0.0.0.0.0.0.0.0.0.0########.#.#.#.D.D.D.D.D.D#z#v#A#B#C.#.h.h.h",
"QtQtQt.#.#.##a#b#c#e#e#e#e#e#e#e#e#e#e#e#e#e#e#e#e.6###D#E.k.#.D.D.D.D.D.D.D#v#v#v#F#G#H.#.h.h.h",
"Qt.b.a.n.s.##b#I#g#J.6.6.6.6.6.6.6.6.6.6.6.6.6.6.6#..N#K#L#M.#.D.D.D.D#v#v#v#v#v#v#N#H#O.n#P#Q#R",
"Qt.a.#.h.n.##c#g#h#S#y#y.T.T.T.T.T.T.U.U.U.U.U.U.N.N.N#T#U#V#W#X#v#v#v#v#v#v#v#v#v#Y.#.n.h#Z#0#1",
".#.#.#.#.#.#.#.#.#.#.#.#.#.#.#.#.#.#.#.#.#.#.#.#.#.#.##2#3#4#5#6#7#8#8#8#8#8#8.#.#.##9a.a#aaabac",
".#adaeafagahahaeaiajaiaiaiaiaiaiaiaiaiaiaiaiaiaiaiaiaiakalamanaoapaqarasat#8#8auavawaxayazaAaBaC",
".#aeaDaEaFaGaGaDaHaHaHaHaHaHaHaHaHaHaHaHaHaHaHaHaHaHajaIaJaKaLaMaNaOaPaQaRaSaTaUaVaWaXaYaZa0a1a2",
".#a3a4a5a6a7a7a8a9a9a9a9a9a9a9a9a9a9a9a9a9a9a9a9a9a9ajb.b#babbbcbdbebfbgbhbibjbkblbmbnbobpbqbrbs",
".abta3bubvbwbwbxbybzbybybybybybybybybybybybybybybybybybAbBbCbDbEbFbGbHbIbJbKbLbMbNbObPbQbRbSbTbU",
"Qt.a.#.#.#.#.#.#.#.#.#.#.#.#.#.#.#.#.#.#.#.#.#.#.#.#.#bVbWbXbYbZb0b1b2b3b4b5bMb6b7b8b9c.c#cacbQt",
"QtQtQt.#.y.x.t.t.t.E.E.E.E.E.E.E.E.E.E.E.E.E.E.E.E.EajcccdcecfcgchcicjckclcmcncocpcqcrcsctcucvQt",
"QtQtQt.#cwcxcycycyczczczczczczczczczczczczczczczczczajcAcBcCcDcDcEcFcGcHcIcJcKcLcMcNcOcPcQcRcSQt",
"QtQtQt.#aeaDaGaGaGcTcTcTcTcTcTcTcTcTcTcTcTcTcTcTcTcTajcUcVcWcXcYcZc0c1c2c3c4c5c6c7c8c9d.d#dadbQt",
"QtQtQtQt.a.#a7a7a7dcdcdcdcdcdcdcdcdcdcdcdcdcdcdcdcbwajddcjdedfdgdhdidjdkdldmdndodpdqdrdsdtdudvQt",
"QtQtQtQt.a.#bwbwbwbzbwbwbwbwbwbwbwbwbwajajajajajajajajdwdxcHdydzdAdBdCdDdEdFdGdHdIdJdKdLdMdNdOQt",
"QtQtQtQt.a.#.#.#.#.#.#.#.#.#.#.#.#.#.#.#.#.#.#.#.#.#.#dPdQdRdSdTdUdVdWdXdYdZd0d1d2d3d4d5d6d7d8Qt",
"QtQtQtQtQtQt.h.h.h.h.h.h.h.h.h.h.h.h.h.h.h.h.h.h.h.h.h.hd9e.e#eaebecedeeefegeheiejekelemeneoepQt",
"QtQtQtQtQtQt.e.e.e.e.e.e.e.e.e.e.e.e.e.e.e.e.e.e.e.e.eeqereseteuevewexeyezeAeBeCeDeEeFeGeHeIeJQt",
"QtQtQtQtQtQtQtQtQtQtQtQtQtQtQtQtQtQtQtQtQtQtQtQtQtQtQteKeLeMeNeOePeQeReSeTeUeVeWeXeYeZe0e1e2e3Qt",
"QtQtQtQtQtQtQtQtQtQtQtQtQtQtQtQtQtQtQtQtQtQtQtQtQtQte4e5e6e7e8e9f.f#fafbfcfdfefffgfhfifjfkflfmfn",
"QtQtQtQtQtQtQtQtQtQtQtQtQtQtQtQtQtQtQtQtQtQtQtQtQtQtfofpfqfrfsftfufvfwfxfyfzfAfBfBfCfDfEfFfGfHfI",
"QtQtQtQtQtQtQtQtQtQtQtQtQtQtQtQtQtQtQtQtQtQtQtQtQtQtfJfKfLfMfNfOfPfQfRfSfTfUfVfWfXfBfYfZf0f1f2Qt",
"QtQtQtQtQtQtQtQtQtQtQtQtQtQtQtQtQtQtQtQtQtQtQtQtQtf3f4f5f6f7f8f9g.g#gagbgcgdgdgegfggghgigjQtQtQt",
"QtQtQtQtQtQtQtQtQtQtQtQtQtQtQtQtQtQtQtQtQtQtQtQtQtgkglgmgngogpgqgrgsgtgugvgwgxgygzgAgBgCgDQtQtQt",
"QtQtQtQtQtQtQtQtQtQtQtQtQtQtQtQtQtQtQtQtQtQtQtQtgEgFgGgHgIgJgKgLgMgNgOgPgQgRgSgTgUgVgWgXgYQtQtQt"};
